<svg width="62" height="13" viewBox="0 0 62 13" fill="none" xmlns="http://www.w3.org/2000/svg">
<path d="M0.637813 1.44H3.57381C4.14981 1.44 4.69115 1.51733 5.19781 1.672C5.70448 1.82667 6.11515 2.088 6.42981 2.456C6.74448 2.824 6.90181 3.336 6.90181 3.992C6.90181 4.43467 6.81381 4.83733 6.63781 5.2C6.46715 5.55733 6.25381 5.848 5.99781 6.072C5.74181 6.296 5.48848 6.42933 5.23781 6.472C5.44048 6.488 5.66448 6.552 5.90981 6.664C6.16048 6.776 6.39781 6.936 6.62181 7.144C6.85115 7.352 7.03781 7.61333 7.18181 7.928C7.33115 8.23733 7.40581 8.60533 7.40581 9.032C7.40581 9.608 7.28848 10.12 7.05381 10.568C6.81915 11.016 6.46181 11.368 5.98181 11.624C5.50715 11.8747 4.90448 12 4.17381 12H0.637813V1.44ZM1.99781 10.856H4.03781C4.54448 10.856 4.93648 10.768 5.21381 10.592C5.49648 10.4107 5.69381 10.176 5.80581 9.888C5.92315 9.6 5.98181 9.29333 5.98181 8.968C5.98181 8.42933 5.80581 7.99467 5.45381 7.664C5.10181 7.33333 4.59248 7.168 3.92581 7.168H1.99781V10.856ZM1.99781 6.048H3.76581C4.17115 6.048 4.50448 5.96 4.76581 5.784C5.02715 5.60267 5.22181 5.37333 5.34981 5.096C5.47781 4.81333 5.54181 4.52267 5.54181 4.224C5.54181 3.61067 5.36048 3.184 4.99781 2.944C4.64048 2.704 4.16048 2.584 3.55781 2.584H1.99781V6.048ZM12.1534 12.192C11.4761 12.192 10.8734 12.04 10.3454 11.736C9.82277 11.432 9.4121 11.0213 9.11344 10.504C8.81477 9.98133 8.66544 9.392 8.66544 8.736C8.66544 8.08 8.81477 7.488 9.11344 6.96C9.4121 6.432 9.82277 6.01333 10.3454 5.704C10.8734 5.39467 11.4761 5.24 12.1534 5.24C12.8254 5.24 13.4201 5.39467 13.9374 5.704C14.4601 6.01333 14.8681 6.432 15.1614 6.96C15.4548 7.488 15.6014 8.08 15.6014 8.736C15.6014 9.392 15.4548 9.98133 15.1614 10.504C14.8681 11.0213 14.4601 11.432 13.9374 11.736C13.4201 12.04 12.8254 12.192 12.1534 12.192ZM12.1534 11C12.5801 11 12.9508 10.9013 13.2654 10.704C13.5854 10.5067 13.8334 10.2373 14.0094 9.896C14.1854 9.54933 14.2734 9.16 14.2734 8.728C14.2734 8.296 14.1854 7.90667 14.0094 7.56C13.8334 7.21333 13.5854 6.93867 13.2654 6.736C12.9508 6.53333 12.5801 6.432 12.1534 6.432C11.7214 6.432 11.3454 6.53333 11.0254 6.736C10.7054 6.93867 10.4548 7.21333 10.2734 7.56C10.0974 7.90667 10.0094 8.296 10.0094 8.728C10.0094 9.16 10.0974 9.54933 10.2734 9.896C10.4548 10.2373 10.7054 10.5067 11.0254 10.704C11.3454 10.9013 11.7214 11 12.1534 11ZM20.1847 12.192C19.5074 12.192 18.9047 12.04 18.3767 11.736C17.854 11.432 17.4434 11.0213 17.1447 10.504C16.846 9.98133 16.6967 9.392 16.6967 8.736C16.6967 8.08 16.846 7.488 17.1447 6.96C17.4434 6.432 17.854 6.01333 18.3767 5.704C18.9047 5.39467 19.5074 5.24 20.1847 5.24C20.8567 5.24 21.4514 5.39467 21.9687 5.704C22.4914 6.01333 22.8994 6.432 23.1927 6.96C23.486 7.488 23.6327 8.08 23.6327 8.736C23.6327 9.392 23.486 9.98133 23.1927 10.504C22.8994 11.0213 22.4914 11.432 21.9687 11.736C21.4514 12.04 20.8567 12.192 20.1847 12.192ZM20.1847 11C20.6114 11 20.982 10.9013 21.2967 10.704C21.6167 10.5067 21.8647 10.2373 22.0407 9.896C22.2167 9.54933 22.3047 9.16 22.3047 8.728C22.3047 8.296 22.2167 7.90667 22.0407 7.56C21.8647 7.21333 21.6167 6.93867 21.2967 6.736C20.982 6.53333 20.6114 6.432 20.1847 6.432C19.7527 6.432 19.3767 6.53333 19.0567 6.736C18.7367 6.93867 18.486 7.21333 18.3047 7.56C18.1287 7.90667 18.0407 8.296 18.0407 8.728C18.0407 9.16 18.1287 9.54933 18.3047 9.896C18.486 10.2373 18.7367 10.5067 19.0567 10.704C19.3767 10.9013 19.7527 11 20.1847 11ZM29.1919 5.432H30.8719L27.4799 8.56L31.0959 12H29.3919L26.3439 9.088V12H24.9519V0.992H26.3439V8.032L29.1919 5.432ZM38.2749 2.68H35.4269V1.44H42.4989V2.68H39.6509V12H38.2749V2.68ZM44.3706 8.744C44.3706 9.432 44.5172 9.98133 44.8106 10.392C45.1092 10.7973 45.5652 11 46.1786 11C46.7972 11 47.2532 10.7973 47.5466 10.392C47.8399 9.98133 47.9866 9.432 47.9866 8.744V5.432H49.3626V8.936C49.3626 9.576 49.2372 10.1413 48.9866 10.632C48.7412 11.1227 48.3812 11.5067 47.9066 11.784C47.4372 12.056 46.8612 12.192 46.1786 12.192C45.5012 12.192 44.9252 12.056 44.4506 11.784C43.9812 11.5067 43.6212 11.1227 43.3706 10.632C43.1252 10.1413 43.0026 9.576 43.0026 8.936V5.432H44.3706V8.744ZM52.6221 12H51.2381V5.432H52.6221V6.568H52.5821C52.6087 6.42933 52.7074 6.256 52.8781 6.048C53.0487 5.84 53.2834 5.65333 53.5821 5.488C53.8807 5.32267 54.2381 5.24 54.6541 5.24C54.9581 5.24 55.2247 5.28267 55.4541 5.368C55.6887 5.448 55.8541 5.528 55.9501 5.608L55.3821 6.76C55.3074 6.68533 55.1767 6.61067 54.9901 6.536C54.8034 6.456 54.5714 6.416 54.2941 6.416C53.9421 6.416 53.6407 6.52533 53.3901 6.744C53.1394 6.96267 52.9474 7.22667 52.8141 7.536C52.6861 7.84 52.6221 8.12267 52.6221 8.384V12ZM56.2318 5.432H57.5758V3.568C57.5758 2.90133 57.6905 2.36533 57.9198 1.96C58.1545 1.55467 58.4505 1.26133 58.8078 1.08C59.1705 0.893333 59.5411 0.799999 59.9198 0.799999C60.3785 0.799999 60.7305 0.863999 60.9758 0.992C61.2265 1.12 61.3758 1.20533 61.4238 1.248L60.8638 2.312C60.8371 2.28 60.7545 2.22133 60.6158 2.136C60.4771 2.05067 60.2878 2.008 60.0478 2.008C59.8718 2.008 59.7011 2.05067 59.5358 2.136C59.3705 2.22133 59.2318 2.38667 59.1198 2.632C59.0078 2.87733 58.9518 3.24267 58.9518 3.728V5.432H60.8238V6.624H58.9518V12H57.5758V6.624H56.2318V5.432Z" fill="black"/>
</svg>
