<svg width="85" height="36" viewBox="0 0 85 36" fill="none" xmlns="http://www.w3.org/2000/svg">
<rect x="1" y="1" width="83" height="34" rx="4" stroke="#A2A2A2" stroke-opacity="0.866667" stroke-width="2"/>
<path d="M28.2256 10.48H35.7936V12.185H30.0956V16.871H35.4086V18.565H30.0956V25H28.2256V10.48ZM38.3913 25V15.969H40.3053V25H38.3913ZM39.3703 12.878C39.0257 12.878 38.7287 12.757 38.4793 12.515C38.2373 12.2657 38.1163 11.9687 38.1163 11.624C38.1163 11.2793 38.2373 10.9823 38.4793 10.733C38.7287 10.4837 39.0257 10.359 39.3703 10.359C39.5977 10.359 39.8067 10.4177 39.9973 10.535C40.1953 10.6523 40.353 10.8063 40.4703 10.997C40.5877 11.1803 40.6463 11.3893 40.6463 11.624C40.6463 11.9687 40.5217 12.2657 40.2723 12.515C40.023 12.757 39.7223 12.878 39.3703 12.878ZM45.2222 25H43.2972V9.864H45.2222V25ZM47.2092 15.969H48.9802V12.262H50.8832V15.969H53.2042V17.608H50.8832V22.074C50.8832 22.602 50.9749 22.9907 51.1582 23.24C51.3489 23.4893 51.6019 23.614 51.9172 23.614C52.1959 23.614 52.4122 23.5627 52.5662 23.46C52.7202 23.3573 52.8119 23.2877 52.8412 23.251L53.6002 24.659C53.5562 24.6957 53.4389 24.7653 53.2482 24.868C53.0576 24.9707 52.8119 25.0623 52.5112 25.143C52.2106 25.2237 51.8586 25.264 51.4552 25.264C50.7512 25.264 50.1609 25.0513 49.6842 24.626C49.2149 24.1933 48.9802 23.5113 48.9802 22.58V17.608H47.2092V15.969ZM56.4614 20.875C56.4688 21.4177 56.5861 21.9127 56.8134 22.36C57.0408 22.8073 57.3781 23.163 57.8254 23.427C58.2801 23.691 58.8374 23.823 59.4974 23.823C60.0548 23.823 60.5278 23.7423 60.9164 23.581C61.3124 23.4123 61.6351 23.2143 61.8844 22.987C62.1338 22.7523 62.3134 22.5433 62.4234 22.36L63.3584 23.515C63.1164 23.867 62.8194 24.175 62.4674 24.439C62.1228 24.703 61.7011 24.9047 61.2024 25.044C60.7038 25.1907 60.0951 25.264 59.3764 25.264C58.4084 25.264 57.5688 25.0587 56.8574 24.648C56.1534 24.23 55.6108 23.6543 55.2294 22.921C54.8481 22.1803 54.6574 21.3333 54.6574 20.38C54.6574 19.5 54.8371 18.708 55.1964 18.004C55.5558 17.2927 56.0764 16.7317 56.7584 16.321C57.4478 15.9103 58.2764 15.705 59.2444 15.705C60.1318 15.705 60.9018 15.892 61.5544 16.266C62.2144 16.6327 62.7241 17.1533 63.0834 17.828C63.4501 18.5027 63.6334 19.3093 63.6334 20.248C63.6334 20.3067 63.6298 20.413 63.6224 20.567C63.6151 20.7137 63.6078 20.8163 63.6004 20.875H56.4614ZM61.8074 19.434C61.8001 19.1333 61.7121 18.8033 61.5434 18.444C61.3821 18.0847 61.1181 17.7767 60.7514 17.52C60.3848 17.2633 59.8898 17.135 59.2664 17.135C58.6211 17.135 58.1004 17.2597 57.7044 17.509C57.3158 17.7583 57.0298 18.0627 56.8464 18.422C56.6631 18.774 56.5568 19.1113 56.5274 19.434H61.8074ZM67.6278 25H65.7248V15.969H67.6278V17.531H67.5728C67.6095 17.3403 67.7451 17.102 67.9798 16.816C68.2145 16.53 68.5371 16.2733 68.9478 16.046C69.3585 15.8187 69.8498 15.705 70.4218 15.705C70.8398 15.705 71.2065 15.7637 71.5218 15.881C71.8445 15.991 72.0718 16.101 72.2038 16.211L71.4228 17.795C71.3201 17.6923 71.1405 17.5897 70.8838 17.487C70.6271 17.377 70.3081 17.322 69.9268 17.322C69.4428 17.322 69.0285 17.4723 68.6838 17.773C68.3391 18.0737 68.0751 18.4367 67.8918 18.862C67.7158 19.28 67.6278 19.6687 67.6278 20.028V25ZM76.6758 15.705C77.1451 15.705 77.5815 15.7527 77.9848 15.848C78.3955 15.9433 78.7475 16.057 79.0408 16.189C79.3415 16.321 79.5541 16.4383 79.6788 16.541L78.9198 17.751C78.7731 17.619 78.5091 17.4723 78.1278 17.311C77.7465 17.1423 77.3211 17.058 76.8518 17.058C76.3385 17.058 75.9021 17.1607 75.5428 17.366C75.1835 17.564 75.0038 17.8537 75.0038 18.235C75.0038 18.6163 75.1871 18.9207 75.5538 19.148C75.9278 19.368 76.4265 19.5513 77.0498 19.698C77.5485 19.8153 78.0141 19.973 78.4468 20.171C78.8868 20.369 79.2425 20.644 79.5138 20.996C79.7851 21.3407 79.9208 21.8027 79.9208 22.382C79.9208 22.91 79.8108 23.361 79.5908 23.735C79.3708 24.1017 79.0738 24.3987 78.6998 24.626C78.3258 24.846 77.9078 25.0073 77.4458 25.11C76.9838 25.2127 76.5145 25.264 76.0378 25.264C75.4805 25.264 74.9781 25.2053 74.5308 25.088C74.0835 24.978 73.7058 24.846 73.3978 24.692C73.0971 24.5307 72.8771 24.3913 72.7378 24.274L73.4968 22.91C73.6875 23.0933 73.9991 23.2877 74.4318 23.493C74.8718 23.6983 75.3705 23.801 75.9278 23.801C76.5438 23.801 77.0425 23.6727 77.4238 23.416C77.8051 23.152 77.9958 22.811 77.9958 22.393C77.9958 22.0777 77.9041 21.8247 77.7208 21.634C77.5375 21.4433 77.2918 21.2893 76.9838 21.172C76.6758 21.0547 76.3385 20.952 75.9718 20.864C75.6198 20.7833 75.2751 20.677 74.9378 20.545C74.6078 20.413 74.3035 20.2443 74.0248 20.039C73.7535 19.8263 73.5371 19.5697 73.3758 19.269C73.2145 18.961 73.1338 18.6017 73.1338 18.191C73.1338 17.6703 73.2988 17.2267 73.6288 16.86C73.9588 16.486 74.3915 16.2 74.9268 16.002C75.4621 15.804 76.0451 15.705 76.6758 15.705Z" fill="#A2A2A2"/>
<path d="M9.46154 18H20.5385M7 13H23M13.1538 23H16.8462" stroke="#A2A2A2" stroke-width="2" stroke-linecap="round" stroke-linejoin="round"/>
</svg>
